<svg width="37" height="36" viewBox="0 0 37 36" fill="none" xmlns="http://www.w3.org/2000/svg">
<path d="M8.28138 36C7.876 36 7.47345 35.8716 7.1299 35.6194C6.48994 35.1485 6.19099 34.3391 6.36516 33.5581L8.74547 22.9125L0.672975 15.7249C0.0795918 15.199 -0.147091 14.3661 0.0965296 13.604C0.34015 12.8433 1.00298 12.3048 1.78776 12.2311L12.4687 11.2466L16.6915 1.21322C17.0029 0.47606 17.712 0 18.4999 0C19.2878 0 19.9969 0.47606 20.3083 1.2115L24.5311 11.2466L35.2103 12.2311C35.9968 12.303 36.6596 12.8433 36.9032 13.604C37.1468 14.3646 36.9216 15.199 36.3282 15.7249L28.2557 22.9111L30.636 33.5564C30.8105 34.3391 30.5112 35.1485 29.8715 35.6179C29.2333 36.0874 28.3822 36.1235 27.71 35.7134L18.4999 30.1253L9.28973 35.7165C8.97836 35.9043 8.63142 36 8.28138 36ZM18.4999 27.7181C18.8499 27.7181 19.1966 27.8135 19.5082 28.0013L28.2004 33.2795L25.9539 23.2318C25.7935 22.5167 26.0326 21.7701 26.5769 21.2863L34.1991 14.4993L24.1147 13.5696C23.3887 13.5022 22.7642 13.0388 22.4805 12.3595L18.4999 2.89104L14.5144 12.3609C14.2338 13.0356 13.6094 13.4991 12.885 13.5664L2.79922 14.4962L10.4212 21.2831C10.9671 21.7684 11.2059 22.5135 11.0442 23.2304L8.79939 33.2778L17.4915 28.0013C17.8029 27.8135 18.1498 27.7181 18.4999 27.7181ZM12.3871 11.4406C12.3871 11.4406 12.3871 11.4424 12.3854 11.4438L12.3871 11.4406ZM24.6096 11.436L24.6113 11.4392C24.6113 11.4375 24.6113 11.4375 24.6096 11.436Z" fill="#484848"/>
</svg>
