<svg width="25" height="25" viewBox="0 0 25 25" fill="none" xmlns="http://www.w3.org/2000/svg">
<path d="M10.6772 11.7188H0.781251C0.349999 11.7188 0 11.3688 0 10.9375C0 10.5062 0.349999 10.1562 0.781251 10.1562H10.6772C11.1084 10.1562 11.4584 10.5062 11.4584 10.9375C11.4584 11.3688 11.1084 11.7188 10.6772 11.7188Z" fill="#484848"/>
<path d="M6.77105 15.6252C6.57097 15.6252 6.37108 15.5491 6.21887 15.3961C5.9137 15.0907 5.9137 14.596 6.21887 14.2908L9.57314 10.9367L6.21887 7.58358C5.9137 7.27821 5.9137 6.78345 6.21887 6.47827C6.52405 6.1731 7.01882 6.1731 7.32418 6.47827L11.2304 10.3845C11.5356 10.6897 11.5356 11.1845 11.2304 11.4898L7.32418 15.3961C7.17102 15.5491 6.97094 15.6252 6.77105 15.6252Z" fill="#484848"/>
<path d="M16.6667 25.0001C15.5177 25.0001 14.5835 24.0657 14.5835 22.9167V4.16671C14.5835 3.27617 15.1502 2.48138 15.9938 2.1886L22.2522 0.102147C23.6522 -0.327007 25.0001 0.711546 25.0001 2.0835V20.8335C25.0001 21.7231 24.4334 22.5168 23.5908 22.8105L17.3303 24.8981C17.1022 24.9689 16.8908 25.0001 16.6667 25.0001ZM22.9167 1.56261C22.849 1.56261 22.7918 1.571 22.7304 1.58969L16.4981 3.66775C16.2938 3.7387 16.146 3.94489 16.146 4.16671V22.9167C16.146 23.2721 16.5313 23.5116 16.8532 23.4105L23.0855 21.3325C23.2886 21.2615 23.4376 21.0554 23.4376 20.8335V2.0835C23.4376 1.79702 23.2043 1.56261 22.9167 1.56261Z" fill="#484848"/>
<path d="M9.11475 5.2084C8.68349 5.2084 8.3335 4.8584 8.3335 4.42715V2.86465C8.3335 1.28441 9.61772 0 11.198 0H22.9167C23.348 0 23.698 0.349999 23.698 0.781251C23.698 1.2125 23.348 1.5625 22.9167 1.5625H11.198C10.4802 1.5625 9.896 2.14691 9.896 2.86465V4.42715C9.896 4.8584 9.546 5.2084 9.11475 5.2084Z" fill="#484848"/>
<path d="M15.3648 21.875H11.198C9.61772 21.875 8.3335 20.5906 8.3335 19.0104V17.4479C8.3335 17.0166 8.68349 16.6666 9.11475 16.6666C9.546 16.6666 9.896 17.0166 9.896 17.4479V19.0104C9.896 19.7281 10.4802 20.3125 11.198 20.3125H15.3648C15.796 20.3125 16.146 20.6625 16.146 21.0938C16.146 21.525 15.796 21.875 15.3648 21.875Z" fill="#484848"/>
</svg>
