<svg width="35" height="35" viewBox="0 0 35 35" fill="none" xmlns="http://www.w3.org/2000/svg">
<path d="M13.8542 21.875H5.10417C4.70167 21.875 4.375 21.5483 4.375 21.1458C4.375 20.7433 4.70167 20.4166 5.10417 20.4166H13.8542C14.2567 20.4166 14.5834 20.7433 14.5834 21.1458C14.5834 21.5483 14.2567 21.875 13.8542 21.875Z" fill="#484848"/>
<path d="M12.3959 26.2502H5.10417C4.70167 26.2502 4.375 25.9235 4.375 25.521C4.375 25.1185 4.70167 24.7919 5.10417 24.7919H12.3959C12.7984 24.7919 13.125 25.1185 13.125 25.521C13.125 25.9235 12.7984 26.2502 12.3959 26.2502Z" fill="#484848"/>
<path d="M12.3959 10.2083C10.7874 10.2083 9.47925 8.90022 9.47925 7.29167C9.47925 5.68313 10.7874 4.375 12.3959 4.375C14.0045 4.375 15.3126 5.68313 15.3126 7.29167C15.3126 8.90022 14.0045 10.2083 12.3959 10.2083ZM12.3959 5.83334C11.5924 5.83334 10.9376 6.48813 10.9376 7.29167C10.9376 8.09522 11.5924 8.75001 12.3959 8.75001C13.1995 8.75001 13.8543 8.09522 13.8543 7.29167C13.8543 6.48813 13.1995 5.83334 12.3959 5.83334Z" fill="#484848"/>
<path d="M17.5 17.5C17.0975 17.5 16.7709 17.1733 16.7709 16.7708V15.3125C16.7709 14.1064 15.7894 13.125 14.5833 13.125H10.2083C9.0023 13.125 8.02084 14.1064 8.02084 15.3125V16.7708C8.02084 17.1733 7.69417 17.5 7.29167 17.5C6.88917 17.5 6.5625 17.1733 6.5625 16.7708V15.3125C6.5625 13.3029 8.19875 11.6666 10.2083 11.6666H14.5833C16.5929 11.6666 18.2292 13.3029 18.2292 15.3125V16.7708C18.2292 17.1733 17.9025 17.5 17.5 17.5Z" fill="#484848"/>
<path d="M13.8542 30.6251H3.64584C1.63625 30.6251 0 28.9888 0 26.9792V3.64584C0 1.63625 1.63625 0 3.64584 0H21.1459C23.1555 0 24.7917 1.63625 24.7917 3.64584V12.4834C24.7917 12.8859 24.4651 13.2125 24.0626 13.2125C23.6601 13.2125 23.3334 12.8859 23.3334 12.4834V3.64584C23.3334 2.4398 22.3519 1.45834 21.1459 1.45834H3.64584C2.4398 1.45834 1.45834 2.4398 1.45834 3.64584V26.9792C1.45834 28.1853 2.4398 29.1667 3.64584 29.1667H13.8542C14.2567 29.1667 14.5834 29.4934 14.5834 29.8959C14.5834 30.2984 14.2567 30.6251 13.8542 30.6251Z" fill="#484848"/>
<path d="M25.5209 35C20.2943 35 16.0417 30.7475 16.0417 25.5208C16.0417 20.2941 20.2943 16.0416 25.5209 16.0416C30.7476 16.0416 35.0001 20.2941 35.0001 25.5208C35.0001 30.7475 30.7476 35 25.5209 35ZM25.5209 17.5C21.0978 17.5 17.5001 21.0977 17.5001 25.5208C17.5001 29.944 21.0978 33.5417 25.5209 33.5417C29.9441 33.5417 33.5418 29.944 33.5418 25.5208C33.5418 21.0977 29.9441 17.5 25.5209 17.5Z" fill="#484848"/>
<path d="M24.0625 29.167C23.87 29.167 23.6833 29.0897 23.5462 28.954L20.6295 26.0374C20.3452 25.753 20.3452 25.2907 20.6295 25.0063C20.9139 24.7219 21.3762 24.7219 21.6606 25.0063L24.026 27.3717L28.6169 22.1246C28.8823 21.8199 29.3431 21.7892 29.6464 22.0561C29.9498 22.3215 29.9804 22.7824 29.715 23.0857L24.6108 28.919C24.4781 29.0707 24.2871 29.1611 24.0858 29.167C24.0785 29.167 24.0698 29.167 24.0625 29.167Z" fill="#484848"/>
</svg>
