<svg width="42" height="32" viewBox="0 0 42 32" fill="none" xmlns="http://www.w3.org/2000/svg">
<path d="M37.625 31.5H4.375C1.9635 31.5 0 29.5365 0 27.125V4.375C0 1.9635 1.9635 0 4.375 0H37.625C40.0365 0 42 1.9635 42 4.375V27.125C42 29.5365 40.0365 31.5 37.625 31.5ZM4.375 1.75C2.92775 1.75 1.75 2.92775 1.75 4.375V27.125C1.75 28.5723 2.92775 29.75 4.375 29.75H37.625C39.0723 29.75 40.25 28.5723 40.25 27.125V4.375C40.25 2.92775 39.0723 1.75 37.625 1.75H4.375Z" fill="#484848"/>
<path d="M13.125 15.75C10.7135 15.75 8.75 13.7865 8.75 11.375C8.75 8.9635 10.7135 7 13.125 7C15.5365 7 17.5 8.9635 17.5 11.375C17.5 13.7865 15.5365 15.75 13.125 15.75ZM13.125 8.75C11.6777 8.75 10.5 9.92775 10.5 11.375C10.5 12.8222 11.6777 14 13.125 14C14.5722 14 15.75 12.8222 15.75 11.375C15.75 9.92775 14.5722 8.75 13.125 8.75Z" fill="#484848"/>
<path d="M20.1252 24.5C19.6422 24.5 19.2502 24.108 19.2502 23.625V21.875C19.2502 20.4278 18.0725 19.25 16.6252 19.25H9.62524C8.17799 19.25 7.00024 20.4278 7.00024 21.875V23.625C7.00024 24.108 6.60824 24.5 6.12524 24.5C5.64224 24.5 5.25024 24.108 5.25024 23.625V21.875C5.25024 19.4635 7.21374 17.5 9.62524 17.5H16.6252C19.0367 17.5 21.0002 19.4635 21.0002 21.875V23.625C21.0002 24.108 20.6082 24.5 20.1252 24.5Z" fill="#484848"/>
<path d="M35.875 10.5H25.375C24.892 10.5 24.5 10.108 24.5 9.625C24.5 9.142 24.892 8.75 25.375 8.75H35.875C36.358 8.75 36.75 9.142 36.75 9.625C36.75 10.108 36.358 10.5 35.875 10.5Z" fill="#484848"/>
<path d="M35.875 17.5H25.375C24.892 17.5 24.5 17.108 24.5 16.625C24.5 16.142 24.892 15.75 25.375 15.75H35.875C36.358 15.75 36.75 16.142 36.75 16.625C36.75 17.108 36.358 17.5 35.875 17.5Z" fill="#484848"/>
<path d="M35.875 24.5H25.375C24.892 24.5 24.5 24.108 24.5 23.625C24.5 23.142 24.892 22.75 25.375 22.75H35.875C36.358 22.75 36.75 23.142 36.75 23.625C36.75 24.108 36.358 24.5 35.875 24.5Z" fill="#484848"/>
</svg>
