<svg width="67" height="50" viewBox="0 0 67 50" fill="none" xmlns="http://www.w3.org/2000/svg">
<path d="M49.4289 49.2647H5.74755C2.5795 49.2647 0 46.6852 0 43.5171V13.6299C0 10.4618 2.5795 7.88232 5.74755 7.88232H49.4289C52.597 7.88232 55.1765 10.4618 55.1765 13.6299V43.5171C55.1765 46.6852 52.597 49.2647 49.4289 49.2647ZM5.74755 10.1813C3.84626 10.1813 2.29902 11.7286 2.29902 13.6299V43.5171C2.29902 45.4184 3.84626 46.9657 5.74755 46.9657H49.4289C51.3302 46.9657 52.8774 45.4184 52.8774 43.5171V13.6299C52.8774 11.7286 51.3302 10.1813 49.4289 10.1813H5.74755Z" fill="#484848"/>
<path d="M17.2427 28.5735C14.0746 28.5735 11.4951 25.994 11.4951 22.8259C11.4951 19.6579 14.0746 17.0784 17.2427 17.0784C20.4107 17.0784 22.9902 19.6579 22.9902 22.8259C22.9902 25.994 20.4107 28.5735 17.2427 28.5735ZM17.2427 19.3774C15.3414 19.3774 13.7941 20.9246 13.7941 22.8259C13.7941 24.7272 15.3414 26.2744 17.2427 26.2744C19.144 26.2744 20.6912 24.7272 20.6912 22.8259C20.6912 20.9246 19.144 19.3774 17.2427 19.3774Z" fill="#484848"/>
<path d="M26.439 40.0685C25.8045 40.0685 25.2895 39.5535 25.2895 38.919V36.62C25.2895 34.7187 23.7423 33.1715 21.841 33.1715H12.6449C10.7436 33.1715 9.19636 34.7187 9.19636 36.62V38.919C9.19636 39.5535 8.68138 40.0685 8.04685 40.0685C7.41232 40.0685 6.89734 39.5535 6.89734 38.919V36.62C6.89734 33.4519 9.47684 30.8724 12.6449 30.8724H21.841C25.009 30.8724 27.5885 33.4519 27.5885 36.62V38.919C27.5885 39.5535 27.0735 40.0685 26.439 40.0685Z" fill="#484848"/>
<path d="M47.1299 21.6765H33.3358C32.7013 21.6765 32.1863 21.1615 32.1863 20.527C32.1863 19.8924 32.7013 19.3774 33.3358 19.3774H47.1299C47.7644 19.3774 48.2794 19.8924 48.2794 20.527C48.2794 21.1615 47.7644 21.6765 47.1299 21.6765Z" fill="#484848"/>
<path d="M47.1299 30.8725H33.3358C32.7013 30.8725 32.1863 30.3575 32.1863 29.723C32.1863 29.0885 32.7013 28.5735 33.3358 28.5735H47.1299C47.7644 28.5735 48.2794 29.0885 48.2794 29.723C48.2794 30.3575 47.7644 30.8725 47.1299 30.8725Z" fill="#484848"/>
<path d="M47.1299 40.0686H33.3358C32.7013 40.0686 32.1863 39.5536 32.1863 38.919C32.1863 38.2845 32.7013 37.7695 33.3358 37.7695H47.1299C47.7644 37.7695 48.2794 38.2845 48.2794 38.919C48.2794 39.5536 47.7644 40.0686 47.1299 40.0686Z" fill="#484848"/>
<circle cx="53.2057" cy="13.7941" r="13.7941" fill="#EFEFEF"/>
<path d="M53.5 2C47.152 2 42 7.152 42 13.5C42 19.848 47.152 25 53.5 25C59.848 25 65 19.848 65 13.5C65 7.152 59.848 2 53.5 2ZM51.2 19.25L45.45 13.5L47.0715 11.8785L51.2 15.9955L59.9285 7.267L61.55 8.9L51.2 19.25Z" fill="#7DB84E"/>
</svg>
