<svg width="69" height="52" viewBox="0 0 69 52" fill="none" xmlns="http://www.w3.org/2000/svg">
<path d="M49.4289 51.2647H5.74755C2.5795 51.2647 0 48.6852 0 45.5171V15.6299C0 12.4618 2.5795 9.88232 5.74755 9.88232H49.4289C52.597 9.88232 55.1765 12.4618 55.1765 15.6299V45.5171C55.1765 48.6852 52.597 51.2647 49.4289 51.2647ZM5.74755 12.1813C3.84626 12.1813 2.29902 13.7286 2.29902 15.6299V45.5171C2.29902 47.4184 3.84626 48.9657 5.74755 48.9657H49.4289C51.3302 48.9657 52.8774 47.4184 52.8774 45.5171V15.6299C52.8774 13.7286 51.3302 12.1813 49.4289 12.1813H5.74755Z" fill="#484848"/>
<path d="M17.2427 30.5735C14.0746 30.5735 11.4951 27.994 11.4951 24.8259C11.4951 21.6579 14.0746 19.0784 17.2427 19.0784C20.4107 19.0784 22.9902 21.6579 22.9902 24.8259C22.9902 27.994 20.4107 30.5735 17.2427 30.5735ZM17.2427 21.3774C15.3414 21.3774 13.7941 22.9246 13.7941 24.8259C13.7941 26.7272 15.3414 28.2744 17.2427 28.2744C19.144 28.2744 20.6912 26.7272 20.6912 24.8259C20.6912 22.9246 19.144 21.3774 17.2427 21.3774Z" fill="#484848"/>
<path d="M26.4391 42.0685C25.8046 42.0685 25.2896 41.5535 25.2896 40.919V38.62C25.2896 36.7187 23.7424 35.1715 21.8411 35.1715H12.645C10.7437 35.1715 9.19648 36.7187 9.19648 38.62V40.919C9.19648 41.5535 8.6815 42.0685 8.04697 42.0685C7.41244 42.0685 6.89746 41.5535 6.89746 40.919V38.62C6.89746 35.4519 9.47696 32.8724 12.645 32.8724H21.8411C25.0091 32.8724 27.5886 35.4519 27.5886 38.62V40.919C27.5886 41.5535 27.0737 42.0685 26.4391 42.0685Z" fill="#484848"/>
<path d="M47.1299 23.6765H33.3358C32.7013 23.6765 32.1863 23.1615 32.1863 22.527C32.1863 21.8924 32.7013 21.3774 33.3358 21.3774H47.1299C47.7644 21.3774 48.2794 21.8924 48.2794 22.527C48.2794 23.1615 47.7644 23.6765 47.1299 23.6765Z" fill="#484848"/>
<path d="M47.1299 32.8725H33.3358C32.7013 32.8725 32.1863 32.3575 32.1863 31.723C32.1863 31.0885 32.7013 30.5735 33.3358 30.5735H47.1299C47.7644 30.5735 48.2794 31.0885 48.2794 31.723C48.2794 32.3575 47.7644 32.8725 47.1299 32.8725Z" fill="#484848"/>
<path d="M47.1299 42.0686H33.3358C32.7013 42.0686 32.1863 41.5536 32.1863 40.919C32.1863 40.2845 32.7013 39.7695 33.3358 39.7695H47.1299C47.7644 39.7695 48.2794 40.2845 48.2794 40.919C48.2794 41.5536 47.7644 42.0686 47.1299 42.0686Z" fill="#484848"/>
<circle cx="53" cy="16" r="16" fill="#EFEFEF"/>
<circle cx="53.206" cy="15.7941" r="13.7941" fill="#FAC445"/>
<path d="M46.9565 10V8H48.2609V10H50.2174V11.3333H48.2609V13.3333H46.9565V11.3333H45V10H46.9565ZM48.913 14V12H50.8696V10H55.4348L56.6283 11.3333H58.6957C59.413 11.3333 60 11.9333 60 12.6667V20.6667C60 21.4 59.413 22 58.6957 22H48.2609C47.5435 22 46.9565 21.4 46.9565 20.6667V14H48.913ZM53.4783 20C55.2783 20 56.7391 18.5067 56.7391 16.6667C56.7391 14.8267 55.2783 13.3333 53.4783 13.3333C51.6783 13.3333 50.2174 14.8267 50.2174 16.6667C50.2174 18.5067 51.6783 20 53.4783 20ZM51.3913 16.6667C51.3913 17.8467 52.3239 18.8 53.4783 18.8C54.6326 18.8 55.5652 17.8467 55.5652 16.6667C55.5652 15.4867 54.6326 14.5333 53.4783 14.5333C52.3239 14.5333 51.3913 15.4867 51.3913 16.6667Z" fill="#484848"/>
</svg>
