<svg width="32" height="36" viewBox="0 0 32 36" fill="none" xmlns="http://www.w3.org/2000/svg">
<path d="M23.6522 27.5479C23.2682 27.5479 22.9565 27.8595 22.9565 28.2435C22.9565 28.6275 23.2682 28.9392 23.6522 28.9392C24.0362 28.9392 24.3478 28.6275 24.3478 28.2435C24.3478 27.8595 24.0362 27.5479 23.6522 27.5479Z" fill="#484848"/>
<path d="M25.365 25.2983L22.0586 24.1964L20.8716 21.8223C21.9409 20.7339 22.6834 19.2938 22.9338 17.7917L23.0818 16.9043H24.3478C25.4986 16.9043 26.4348 15.9681 26.4348 14.8174V10.4348C26.4348 4.68104 21.7537 0 16 0C10.2315 0 5.56522 4.66762 5.56522 10.4348V14.8174C5.56522 15.7242 6.14685 16.4975 6.95652 16.7847V17.6C6.95652 18.7507 7.89273 19.687 9.04348 19.687H9.6544C9.95597 20.3421 10.3463 20.9488 10.8213 21.4938C10.9198 21.6071 11.0225 21.7169 11.1278 21.8237L9.94143 24.1964L6.63492 25.2984C2.7904 26.5803 0 30.6276 0 34.9217C0 35.306 0.311443 35.6174 0.695652 35.6174H31.3043C31.6885 35.6174 32 35.306 32 34.9217C32 30.6276 29.2097 26.5803 25.365 25.2983ZM25.0435 14.8174C25.0435 15.201 24.7314 15.513 24.3478 15.513H23.2861C23.463 14.1433 23.5808 12.6857 23.6282 11.2501C23.6296 11.2096 23.6307 11.1702 23.6319 11.1304H25.0435V14.8174ZM7.65217 15.513C7.26859 15.513 6.95652 15.201 6.95652 14.8174V11.1304H8.36856C8.37085 11.203 8.37329 11.2759 8.376 11.3493C8.37607 11.3518 8.37621 11.3542 8.37628 11.3567C8.37628 11.3569 8.37628 11.3571 8.37628 11.3574C8.42497 12.7537 8.54129 14.1734 8.71409 15.513H7.65217V15.513ZM9.04348 18.2957C8.65989 18.2957 8.34783 17.9836 8.34783 17.6V16.9043H8.91812L9.06616 17.7919C9.0944 17.9606 9.12911 18.1287 9.16925 18.2957H9.04348ZM8.34901 9.73913H6.98296C7.3353 5.0768 11.2262 1.3913 16 1.3913C20.7526 1.3913 24.6606 5.07631 25.017 9.73913H23.6511C23.601 5.89725 20.4724 2.78261 16.6227 2.78261H15.3775C11.5278 2.78261 8.39903 5.89725 8.34901 9.73913ZM15.3774 4.17391H16.6226C19.7398 4.17391 22.2627 6.72355 22.2609 9.83722C22.2609 10.0561 22.2591 10.2467 22.2554 10.4202C22.2554 10.4224 22.2554 10.4247 22.2554 10.427L21.3853 10.3027C19.0214 9.96515 16.7895 8.84918 15.1006 7.16028C14.9701 7.02984 14.7932 6.95652 14.6087 6.95652C12.7405 6.95652 10.9521 7.80772 9.76988 9.24578C10.0612 6.41315 12.4559 4.17391 15.3774 4.17391ZM10.6115 18.2957C10.2632 17.1372 9.86476 13.7285 9.77669 11.5441L10.713 10.2957C11.5729 9.14957 12.9107 8.43743 14.3338 8.35569C16.2063 10.1377 18.6287 11.3144 21.1885 11.6799L22.2127 11.8263C22.1442 13.2792 22.0043 14.7371 21.8039 16.078C21.8038 16.0784 21.8038 16.0789 21.8037 16.0794C21.74 16.5105 21.6897 16.7879 21.5615 17.5628C21.193 19.7725 19.5442 21.7708 17.3676 22.315C16.4718 22.5386 15.5281 22.5386 14.6328 22.315C13.2737 21.9752 12.0275 21.0349 11.2232 19.687H12.6414C12.9286 20.4966 13.7018 21.0783 14.6087 21.0783H16C17.153 21.0783 18.087 20.1444 18.087 18.9913C18.087 17.8406 17.1507 16.9043 16 16.9043H14.6087C13.6816 16.9043 12.9198 17.5032 12.6402 18.2957H10.6115ZM14.5502 23.7229C15.0273 23.8234 15.5138 23.8748 16 23.8748C16.3806 23.8748 16.7613 23.8429 17.1376 23.7811L15.9084 25.0811L14.5502 23.7229ZM14.952 26.0925L12.7455 28.4258C12.1381 27.2631 11.6161 26.053 11.188 24.8142L12.0166 23.157L14.952 26.0925ZM19.8655 22.9213L20.8118 24.8141C20.383 26.055 19.8609 27.2655 19.2541 28.4269L16.8925 26.0653L19.8655 22.9213ZM13.913 18.9913C13.913 18.6072 14.2246 18.2957 14.6087 18.2957H16C16.3836 18.2957 16.6957 18.6077 16.6957 18.9913C16.6957 19.3754 16.3841 19.687 16 19.687H14.6087C14.2251 19.687 13.913 19.3749 13.913 18.9913ZM1.41913 34.2261C1.69482 30.7799 3.98831 27.6475 7.07492 26.6182L10.0032 25.6424C10.5397 27.1258 11.2043 28.5677 11.9832 29.9373C11.9846 29.9397 11.9858 29.9421 11.9871 29.9444C11.9871 29.9444 11.9872 29.9444 11.9872 29.9445C12.5563 30.9455 13.1969 31.9236 13.8913 32.8522L14.7471 34.2261H1.41913ZM16 33.606L15.0566 32.0913C15.046 32.0744 15.0347 32.0579 15.0227 32.0419C14.4594 31.2904 13.9339 30.5046 13.4553 29.7002L15.9362 27.0766L18.5503 29.6907C18.0685 30.5009 17.5412 31.2901 16.9774 32.0417C16.9433 32.0872 16.9917 32.0156 16 33.606ZM17.2529 34.2261L18.1086 32.8523C18.8061 31.9201 19.4513 30.9341 20.0261 29.9214C20.0296 29.9153 20.0328 29.909 20.0363 29.9029C20.0367 29.9021 20.0371 29.9014 20.0376 29.9007C20.8066 28.5441 21.4643 27.1148 21.9968 25.6424L24.925 26.6182C28.0117 27.6475 30.3052 30.7799 30.5809 34.2261H17.2529Z" fill="#484848"/>
<path d="M28.49 31.4109C28.0251 30.4803 27.3442 29.6536 26.5207 29.0201C26.2162 28.7858 25.7794 28.8427 25.5452 29.1473C25.3109 29.4518 25.3679 29.8886 25.6724 30.1229C26.33 30.6288 26.8739 31.2892 27.2453 32.0326C27.4174 32.3769 27.8354 32.5155 28.1785 32.3441C28.5222 32.1724 28.6617 31.7546 28.49 31.4109Z" fill="#484848"/>
</svg>
